# xmcd CD database file
#
# Track frame offsets:
#	151
#	9780
#	21057
#	36545
#	49722
#	63388
#	79668
#	88479
#	99827
#	111499
#	126264
#	142461
#	153026
#	163662
#
# Disc length: 2340 seconds
#
# Revision: 0
# Processed by: cddbd v1.5.2PL0 Copyright (c) Steve Scherf et al.
# Submitted via: CDex 1.51
#
DISCID=b809220e
DTITLE=Dead Ringer Band - Red Desert Sky
DYEAR=1994
DGENRE=Country
TTITLE0=Road to Nowhere
TTITLE1=Born in the Country
TTITLE2=Power of the Land
TTITLE3=Ashes of Love
TTITLE4=Wish You Were Here
TTITLE5=Too Many Blues in This Room
TTITLE6=Wild Turkey [Instrumental]
TTITLE7=Red Desert Sky
TTITLE8=Baby Don't Go
TTITLE9=Northern Highway
TTITLE10=Sweetest Gift
TTITLE11=Last Days on the Road
TTITLE12=Won't Be Needing You
TTITLE13=Itchy Twitchy Spot
EXTD=YEAR: 1994
EXTT0=
EXTT1=
EXTT2=
EXTT3=
EXTT4=
EXTT5=
EXTT6=
EXTT7=
EXTT8=
EXTT9=
EXTT10=
EXTT11=
EXTT12=
EXTT13=
PLAYORDER=
